<svg width="20" height="16" viewBox="0 0 20 16" fill="none" xmlns="http://www.w3.org/2000/svg">
<path d="M3.14577 9.32191C2.99081 9.40082 2.92244 9.59948 2.9915 9.76927L3.6993 11.4184C3.73408 11.5006 3.79752 11.5645 3.87554 11.596C3.90972 11.6095 3.94597 11.6165 3.98242 11.6165C4.02803 11.6169 4.07305 11.6063 4.11453 11.5859L9.4623 8.87476L8.97792 14.3717C8.96856 14.4799 9.00698 14.5863 9.08156 14.6586C9.31601 14.8692 9.6082 14.9892 9.9122 15C9.99604 14.9999 10.0794 14.9885 10.1606 14.966C10.5948 14.843 10.9314 14.4232 11.161 13.706L13.2655 6.94236L17.4335 4.83215C18.6604 4.21083 19.2926 2.95096 18.868 1.9676C18.6271 1.45363 18.1656 1.10399 17.638 1.03546C17.0519 0.939441 16.4529 1.03952 15.9205 1.32244L11.1106 3.77041L5.93915 1.57499C5.28789 1.30875 4.77209 1.31559 4.41035 1.59904C4.10684 1.86934 3.93415 2.27564 3.94154 2.70173C3.94469 2.80983 3.99483 2.9098 4.0768 2.9716L7.55907 5.5698L5.56481 6.59412L2.22075 5.67213C2.08372 5.63556 1.94107 5.7026 1.87162 5.83604L1.03812 7.46457C0.994875 7.55085 0.988077 7.65329 1.0195 7.74545C1.05073 7.83773 1.11713 7.91075 1.20175 7.94604L3.67743 9.05578L3.14577 9.32191ZM4.5863 2.53108C4.60482 2.38674 4.6721 2.25533 4.77514 2.16231C4.95453 2.02224 5.28169 2.04277 5.71888 2.22026L10.3243 4.16987L8.22283 5.23514L4.5863 2.53108ZM1.75528 7.46125L2.30261 6.40625L5.52067 7.27339C5.59003 7.29242 5.66322 7.28526 5.72843 7.25308L16.188 1.9506C16.6038 1.72799 17.0721 1.64694 17.5312 1.71837C17.8531 1.75055 18.1399 1.95221 18.2988 2.25779C18.5628 2.87248 18.0438 3.77041 17.1661 4.21425L13.5422 6.05812L13.7625 5.35115C13.8182 5.16927 13.7272 4.97275 13.5597 4.91245C13.3919 4.85214 13.2109 4.95083 13.1554 5.13271L10.5664 13.4942C10.4122 13.969 10.2203 14.2524 10.0065 14.3137C9.87398 14.3414 9.73685 14.3131 9.62268 14.2353L10.2519 7.06511C10.2683 6.8766 10.1409 6.70927 9.96707 6.69141C9.7934 6.67335 9.63923 6.81181 9.62268 7.00031L9.52525 8.09626L4.12704 10.8277L3.68374 9.80338L4.57063 9.35281C4.68481 9.29817 4.75839 9.17564 4.75839 9.04038C4.75839 8.90502 4.68481 8.78249 4.57063 8.72796L1.75528 7.46125Z" fill="#D0A659" stroke="#D0A659" stroke-width="0.2"/>
</svg>
