<svg width="16" height="16" viewBox="0 0 16 16" fill="none" xmlns="http://www.w3.org/2000/svg">
<path fill-rule="evenodd" clip-rule="evenodd" d="M1.30072 2.09204C1.14429 2.24615 1.11628 2.35616 1.11628 2.4186C1.11628 2.48105 1.14429 2.59106 1.30072 2.74517C1.45912 2.90121 1.71697 3.06743 2.08061 3.21895C2.80546 3.52097 3.84552 3.72093 5.02326 3.72093C6.20099 3.72093 7.24105 3.52097 7.9659 3.21895C8.32955 3.06743 8.58739 2.90121 8.74579 2.74517C8.90222 2.59106 8.93023 2.48105 8.93023 2.4186C8.93023 2.35616 8.90222 2.24615 8.74579 2.09204C8.58739 1.936 8.32955 1.76978 7.9659 1.61826C7.24105 1.31624 6.20099 1.11628 5.02326 1.11628C3.84552 1.11628 2.80546 1.31624 2.08061 1.61826C1.71697 1.76978 1.45912 1.936 1.30072 2.09204ZM8.93023 3.98679C8.76334 4.08346 8.58363 4.17086 8.39524 4.24936C7.50404 4.62069 6.31154 4.83721 5.02326 4.83721C3.73498 4.83721 2.54248 4.62069 1.65127 4.24936C1.46288 4.17086 1.28317 4.08346 1.11628 3.98679V5.39535C1.11628 5.4578 1.14429 5.56781 1.30072 5.72191C1.45912 5.87795 1.71697 6.04417 2.08061 6.19569C2.80546 6.49771 3.84552 6.69767 5.02326 6.69767C6.20099 6.69767 7.24105 6.49771 7.9659 6.19569C8.32955 6.04417 8.58739 5.87795 8.74579 5.72191C8.90222 5.56781 8.93023 5.4578 8.93023 5.39535V3.98679ZM8.93023 6.96353C8.76334 7.06021 8.58363 7.1476 8.39524 7.2261C7.50404 7.59744 6.31154 7.81395 5.02326 7.81395C3.73498 7.81395 2.54248 7.59744 1.65127 7.2261C1.46288 7.1476 1.28317 7.06021 1.11628 6.96353V8.37209C1.11628 8.43454 1.14429 8.54455 1.30072 8.69866C1.45912 8.8547 1.71697 9.02092 2.08061 9.17243C2.80546 9.47446 3.84552 9.67442 5.02326 9.67442C5.49853 9.67442 5.95357 9.64182 6.37587 9.58235C6.65866 9.2664 7.05632 9.01588 7.49355 8.82173C7.91128 8.63625 8.39834 8.48744 8.93023 8.3806V6.96353ZM10.0465 8.22442V2.4186C10.0465 1.9673 9.82463 1.58788 9.52917 1.29681C9.23568 1.00769 8.83962 0.773011 8.39524 0.587851C7.50404 0.216517 6.31154 0 5.02326 0C3.73498 0 2.54248 0.216517 1.65127 0.587851C1.20689 0.773011 0.810832 1.00769 0.517337 1.29681C0.221877 1.58788 0 1.9673 0 2.4186V11.3488C0 11.8001 0.221877 12.1796 0.517337 12.4706C0.810832 12.7598 1.20689 12.9944 1.65127 13.1796C2.54248 13.5509 3.73498 13.7674 5.02326 13.7674C5.34379 13.7674 5.65751 13.7541 5.96142 13.7284C6.00344 14.1155 6.20803 14.4443 6.47083 14.7032C6.76432 14.9923 7.16038 15.227 7.60476 15.4121C8.49596 15.7835 9.68846 16 10.9767 16C12.265 16 13.4575 15.7835 14.3487 15.4121C14.7931 15.227 15.1892 14.9923 15.4827 14.7032C15.7781 14.4121 16 14.0327 16 13.5814V10.6047C16 10.1533 15.7781 9.77392 15.4827 9.48286C15.1892 9.19374 14.7931 8.95906 14.3487 8.7739C13.4575 8.40256 12.265 8.18605 10.9767 8.18605C10.659 8.18605 10.348 8.19921 10.0465 8.22442ZM14.8837 12.1728V13.5814C14.8837 13.6438 14.8557 13.7539 14.6993 13.908C14.5409 14.064 14.283 14.2302 13.9194 14.3817C13.1945 14.6838 12.1545 14.8837 10.9767 14.8837C9.79901 14.8837 8.75895 14.6838 8.0341 14.3817C7.67045 14.2302 7.41261 14.064 7.25421 13.908C7.09778 13.7539 7.06977 13.6438 7.06977 13.5814V12.1728C7.23666 12.2695 7.41637 12.3569 7.60476 12.4354C8.49596 12.8067 9.68846 13.0233 10.9767 13.0233C12.265 13.0233 13.4575 12.8067 14.3487 12.4354C14.5371 12.3569 14.7168 12.2695 14.8837 12.1728ZM5.95349 10.7523V12.6084C5.65511 12.6363 5.34375 12.6512 5.02326 12.6512C3.84552 12.6512 2.80546 12.4512 2.08061 12.1492C1.71697 11.9977 1.45912 11.8314 1.30072 11.6754C1.14429 11.5213 1.11628 11.4113 1.11628 11.3488V9.94028C1.28317 10.037 1.46288 10.1243 1.65127 10.2028C2.54248 10.5742 3.73498 10.7907 5.02326 10.7907C5.34096 10.7907 5.652 10.7775 5.95349 10.7523ZM7.06977 10.6047C7.06977 10.6671 7.09778 10.7771 7.25421 10.9312C7.41261 11.0873 7.67045 11.2535 8.0341 11.405C8.75895 11.707 9.79901 11.907 10.9767 11.907C12.1545 11.907 13.1945 11.707 13.9194 11.405C14.283 11.2535 14.5409 11.0873 14.6993 10.9312C14.8557 10.7771 14.8837 10.6671 14.8837 10.6047C14.8837 10.5422 14.8557 10.4322 14.6993 10.2781C14.5409 10.122 14.283 9.95583 13.9194 9.80431C13.1945 9.50229 12.1545 9.30233 10.9767 9.30233C10.4811 9.30233 10.0074 9.33778 9.56969 9.40223C8.92768 9.49678 8.37405 9.65214 7.94657 9.84196C7.50787 10.0368 7.25323 10.2449 7.14024 10.4126C7.08342 10.4969 7.06977 10.5592 7.06977 10.6047Z" fill="#D0A659"/>
</svg>
