<svg width="18" height="18" viewBox="0 0 18 18" fill="none" xmlns="http://www.w3.org/2000/svg">
<path d="M1.82759 9.53333H3.2939C3.23893 9.68116 3.23054 9.84141 3.26978 9.99385C3.30902 10.1463 3.39413 10.284 3.51434 10.3897L5.7791 12.3964L5.77931 12.3962C5.78121 12.3979 5.78276 12.3997 5.78486 12.4013L9.36393 15.4H9.27586C9.2027 15.4 9.13253 15.4281 9.0808 15.4781C9.02906 15.5281 9 15.5959 9 15.6667V16.7333C9 16.8041 9.02906 16.8719 9.0808 16.9219C9.13253 16.9719 9.2027 17 9.27586 17H12.5862C12.6594 17 12.7295 16.9719 12.7813 16.9219C12.833 16.8719 12.8621 16.8041 12.8621 16.7333V15.6667C12.8621 15.5959 12.833 15.5281 12.7813 15.4781C12.7295 15.4281 12.6594 15.4 12.5862 15.4V14.9771L12.7339 14.8343C12.8624 14.7108 12.9643 14.5639 13.0336 14.402C13.103 14.2402 13.1384 14.0667 13.1379 13.8915V12.2578L14.1379 10.1311C14.2269 9.94279 14.2365 9.72837 14.1647 9.53333H16.1724C16.3918 9.53309 16.6022 9.44872 16.7573 9.29875C16.9125 9.14877 16.9997 8.94543 17 8.73333V8.2C17 8.12928 16.9709 8.06145 16.9192 8.01144C16.8675 7.96143 16.7973 7.93333 16.7241 7.93333H15.6207V7.66667C15.6207 4.5788 13.0219 2.06667 9.82759 2.06667V1.53333H10.1034C10.1766 1.53333 10.2468 1.50524 10.2985 1.45523C10.3502 1.40522 10.3793 1.33739 10.3793 1.26667C10.3793 1.19594 10.3502 1.12811 10.2985 1.0781C10.2468 1.0281 10.1766 1 10.1034 1H7.89655C7.82339 1 7.75322 1.0281 7.70149 1.0781C7.64975 1.12811 7.62069 1.19594 7.62069 1.26667C7.62069 1.33739 7.64975 1.40522 7.70149 1.45523C7.75322 1.50524 7.82339 1.53333 7.89655 1.53333H8.17241V2.06667C4.97807 2.06667 2.37931 4.5788 2.37931 7.66667V7.93333H1.27586C1.2027 7.93333 1.13253 7.96143 1.0808 8.01144C1.02906 8.06145 1 8.12928 1 8.2V8.73333C1.00026 8.94543 1.08753 9.14877 1.24268 9.29875C1.39782 9.44872 1.60818 9.53309 1.82759 9.53333ZM3.81645 9.70333C3.83586 9.65278 3.87101 9.60928 3.91705 9.57884C3.9631 9.54839 4.01777 9.53249 4.07355 9.53333H4.23103C4.28398 9.5334 4.3358 9.54816 4.38032 9.57587C4.42484 9.60358 4.4602 9.64307 4.48217 9.68963L4.68955 10.1306V10.131L5.15438 11.1195L3.88714 9.99667C3.84542 9.96085 3.81621 9.9134 3.80355 9.86086C3.79089 9.80833 3.7954 9.75329 3.81645 9.70333ZM12.3103 16.4667H9.55172V15.9333H12.3103V16.4667ZM13.6165 9.65563C13.6419 9.69298 13.657 9.73599 13.6603 9.78057C13.6637 9.82515 13.6552 9.86982 13.6357 9.91033L12.6109 12.0896C12.5946 12.1243 12.5862 12.1619 12.5862 12.2V13.8915C12.5865 13.9966 12.5652 14.1007 12.5236 14.1978C12.482 14.2949 12.4209 14.3831 12.3438 14.4572L12.1153 14.6781C12.0897 14.7029 12.0693 14.7323 12.0555 14.7646C12.0416 14.797 12.0345 14.8316 12.0345 14.8667V15.4H10.2063L6.19172 12.0367L5.19172 9.91037C5.17261 9.86973 5.16436 9.82511 5.16772 9.78059C5.17108 9.73608 5.18595 9.69309 5.21096 9.65557C5.23597 9.61804 5.27032 9.58719 5.31087 9.56583C5.35141 9.54448 5.39686 9.5333 5.44303 9.53333H5.62452C5.67579 9.53316 5.72608 9.54688 5.7697 9.57293C5.81331 9.59898 5.8485 9.63633 5.87128 9.68073L6.82224 11.5193C6.85245 11.5777 6.90379 11.6233 6.96652 11.6476L9.72514 12.7143C9.77898 12.7351 9.83823 12.739 9.89448 12.7254L10.9979 12.4587C11.0349 12.4498 11.0696 12.4335 11.0998 12.411C11.1299 12.3884 11.1549 12.3601 11.1732 12.3277L12.6716 9.6723C12.6953 9.63024 12.7303 9.59513 12.7729 9.57068C12.8156 9.54622 12.8642 9.53332 12.9138 9.53333H13.3846C13.4308 9.53292 13.4764 9.54394 13.517 9.56535C13.5576 9.58675 13.5918 9.61783 13.6165 9.65563ZM6.41186 9.53333H12.1215L10.7468 11.9697L9.84721 12.187L7.26897 11.19L6.41186 9.53333ZM8.72414 1.53333H9.27586V2.06667H8.72414V1.53333ZM2.93103 7.66667C2.93103 4.8729 5.28231 2.6 8.17241 2.6H9.82759C12.7177 2.6 15.069 4.8729 15.069 7.66667V7.93333H2.93103V7.66667ZM1.55172 8.46667H16.4483V8.73333C16.4482 8.80403 16.4191 8.87182 16.3674 8.92181C16.3157 8.9718 16.2456 8.99992 16.1724 9H1.82759C1.75445 8.99992 1.68433 8.9718 1.63261 8.92181C1.5809 8.87182 1.55181 8.80403 1.55172 8.73333V8.46667Z" fill="#D0A659" stroke="#D0A659" stroke-width="0.2"/>
</svg>
