<svg width="22" height="15" viewBox="0 0 22 15" fill="none" xmlns="http://www.w3.org/2000/svg">
<path fill-rule="evenodd" clip-rule="evenodd" d="M20.2458 0.280237C20.4909 0.596648 20.4341 1.05265 20.119 1.29875L17.9894 2.96168C19.6841 4.0256 20.8524 5.28563 21.5193 6.12909C22.1602 6.9398 22.1602 8.0602 21.5193 8.87091C20.1615 10.5882 16.7251 14.0322 11 14.0322C8.79653 14.0322 6.93209 13.5221 5.39469 12.7965L2.7687 14.8471C2.45355 15.0932 1.99935 15.0362 1.75423 14.7198C1.5091 14.4034 1.56588 13.9473 1.88103 13.7012L4.01062 12.0383C2.31593 10.9744 1.1476 9.71437 0.48073 8.87091C-0.160243 8.0602 -0.160243 6.9398 0.48073 6.12909C1.83846 4.41182 5.2749 0.967771 11 0.967771C13.2035 0.967771 15.0679 1.47794 16.6053 2.20348L19.2313 0.152922C19.5465 -0.0931759 20.0007 -0.0361754 20.2458 0.280237ZM15.3024 3.22089C14.075 2.73756 12.6431 2.41938 11 2.41938C5.90859 2.41938 2.84419 5.47459 1.61318 7.03158C1.39008 7.31376 1.39008 7.68624 1.61318 7.96842C2.27723 8.80832 3.47479 10.0842 5.23624 11.0813L15.3024 3.22089ZM6.6976 11.7791C7.92497 12.2624 9.35694 12.5806 11 12.5806C16.0914 12.5806 19.1558 9.52542 20.3868 7.96842C20.6099 7.68624 20.6099 7.31376 20.3868 7.03158C19.7228 6.19168 18.5252 4.91581 16.7638 3.91873L6.6976 11.7791Z" fill="black"/>
</svg>
