<svg width="22" height="14" viewBox="0 0 22 14" fill="none" xmlns="http://www.w3.org/2000/svg">
<path fill-rule="evenodd" clip-rule="evenodd" d="M11 1.55556C5.90859 1.55556 2.84419 4.82955 1.61318 6.49803C1.39008 6.80042 1.39008 7.19958 1.61318 7.50196C2.84419 9.17045 5.90859 12.4444 11 12.4444C16.0914 12.4444 19.1558 9.17045 20.3868 7.50196C20.6099 7.19958 20.6099 6.80042 20.3868 6.49803C19.1558 4.82955 16.0914 1.55556 11 1.55556ZM0.48073 5.53092C1.83846 3.69067 5.2749 0 11 0C16.7251 0 20.1615 3.69067 21.5193 5.53092C22.1602 6.39968 22.1602 7.60032 21.5193 8.46908C20.1615 10.3093 16.7251 14 11 14C5.2749 14 1.83846 10.3093 0.48073 8.46908C-0.160243 7.60032 -0.160243 6.39968 0.48073 5.53092ZM11 4.66667C9.80221 4.66667 8.83122 5.71134 8.83122 7C8.83122 8.28866 9.80221 9.33333 11 9.33333C12.1978 9.33333 13.1688 8.28866 13.1688 7C13.1688 5.71134 12.1978 4.66667 11 4.66667ZM7.38536 7C7.38536 4.85223 9.00369 3.11111 11 3.11111C12.9963 3.11111 14.6146 4.85223 14.6146 7C14.6146 9.14777 12.9963 10.8889 11 10.8889C9.00369 10.8889 7.38536 9.14777 7.38536 7Z" fill="#BDBDBD"/>
</svg>
