<svg width="18" height="15" viewBox="0 0 18 15" fill="none" xmlns="http://www.w3.org/2000/svg">
<path d="M16.7419 10.75H16.4839V8.38636C16.4835 8.07305 16.3746 7.77269 16.1811 7.55115C15.9876 7.3296 15.7253 7.20496 15.4516 7.20455V2.18182C15.4513 1.86851 15.3424 1.56814 15.1489 1.3466C14.9554 1.12505 14.693 1.00041 14.4194 1H3.58065C3.30698 1.00041 3.04463 1.12505 2.85112 1.3466C2.65762 1.56814 2.54875 1.86851 2.54839 2.18182V7.20455C2.27473 7.20496 2.01237 7.3296 1.81887 7.55115C1.62536 7.77269 1.51649 8.07305 1.51613 8.38636V10.75H1.25806C1.18962 10.75 1.12398 10.7811 1.07559 10.8365C1.02719 10.8919 1 10.9671 1 11.0455V12.2273C1 12.3056 1.02719 12.3808 1.07559 12.4362C1.12398 12.4916 1.18962 12.5227 1.25806 12.5227H1.51613V13.7045C1.51613 13.7829 1.54332 13.8581 1.59171 13.9135C1.64011 13.9689 1.70575 14 1.77419 14H2.54839C2.60803 14 2.66584 13.9764 2.71196 13.9331C2.75807 13.8898 2.78965 13.8295 2.80129 13.7625L3.01806 12.5227H14.9819L15.1987 13.7625C15.2104 13.8295 15.2419 13.8898 15.288 13.9331C15.3342 13.9764 15.392 14 15.4516 14H16.2258C16.2942 14 16.3599 13.9689 16.4083 13.9135C16.4567 13.8581 16.4839 13.7829 16.4839 13.7045V12.5227H16.7419C16.8104 12.5227 16.876 12.4916 16.9244 12.4362C16.9728 12.3808 17 12.3056 17 12.2273V11.0455C17 10.9671 16.9728 10.8919 16.9244 10.8365C16.876 10.7811 16.8104 10.75 16.7419 10.75ZM3.06452 2.18182C3.0647 2.02516 3.11913 1.87498 3.21588 1.76421C3.31264 1.65344 3.44381 1.59111 3.58065 1.59091H14.4194C14.5562 1.59111 14.6874 1.65344 14.7841 1.76421C14.8809 1.87498 14.9353 2.02516 14.9355 2.18182V7.20455H14.4194V6.02273C14.419 5.70942 14.3101 5.40905 14.1166 5.18751C13.9231 4.96596 13.6608 4.84132 13.3871 4.84091H10.2903C10.0167 4.84132 9.75431 4.96596 9.5608 5.18751C9.36729 5.40905 9.25842 5.70942 9.25806 6.02273V7.20455H8.74194V6.02273C8.74158 5.70942 8.63271 5.40905 8.4392 5.18751C8.24569 4.96596 7.98334 4.84132 7.70968 4.84091H4.6129C4.33924 4.84132 4.07689 4.96596 3.88338 5.18751C3.68987 5.40905 3.581 5.70942 3.58065 6.02273V7.20455H3.06452V2.18182ZM13.9032 6.02273V7.20455H9.77419V6.02273C9.77437 5.86607 9.82881 5.71589 9.92556 5.60512C10.0223 5.49435 10.1535 5.43202 10.2903 5.43182H13.3871C13.5239 5.43202 13.6551 5.49435 13.7519 5.60512C13.8486 5.71589 13.903 5.86607 13.9032 6.02273ZM8.22581 6.02273V7.20455H4.09677V6.02273C4.09695 5.86607 4.15139 5.71589 4.24814 5.60512C4.3449 5.49435 4.47607 5.43202 4.6129 5.43182H7.70968C7.84651 5.43202 7.97768 5.49435 8.07444 5.60512C8.17119 5.71589 8.22563 5.86607 8.22581 6.02273ZM2.03226 8.38636C2.03244 8.22971 2.08687 8.07953 2.18363 7.96875C2.28038 7.85798 2.41156 7.79566 2.54839 7.79545H15.4516C15.5884 7.79566 15.7196 7.85798 15.8164 7.96875C15.9131 8.07953 15.9676 8.22971 15.9677 8.38636V10.75H2.03226V8.38636ZM2.33677 13.4091H2.03226V12.5227H2.49161L2.33677 13.4091ZM15.9677 13.4091H15.6632L15.5084 12.5227H15.9677V13.4091ZM16.4839 11.9318H1.51613V11.3409H16.4839V11.9318Z" fill="#D0A659" stroke="#D0A659" stroke-width="0.2"/>
</svg>
