<svg width="18" height="18" viewBox="0 0 18 18" fill="none" xmlns="http://www.w3.org/2000/svg">
<path d="M16.9775 14.4822C16.9918 14.4298 16.9995 14.3745 16.9995 14.318C16.9995 9.68541 16.9995 11.2084 16.9995 6.47718C17.0004 6.37315 16.9995 6.85134 16.9995 5.42516C17.0007 5.32228 16.9995 5.90385 16.9995 3.67002C16.9995 3.39977 16.8265 3.16274 16.5788 3.09373L9.14426 1.0198C9.05222 0.994178 8.95249 0.992633 8.8552 1.0198L1.42078 3.09373C1.1731 3.16287 1.00013 3.39977 1.00013 3.67002V14.318C1.00013 14.3745 1.00769 14.4298 1.02198 14.4822C0.96021 14.6226 1.03418 14.7864 1.17456 14.8256C2.05078 15.07 8.02207 16.7358 8.93992 16.9918C8.9791 17.0027 9.02048 17.0027 9.05967 16.9918C9.28037 16.9302 16.4501 14.9302 16.825 14.8256C16.9655 14.7864 17.0393 14.6224 16.9775 14.4822ZM8.76536 7.91521L7.68113 7.95795V7.14154L8.76536 7.04729V7.91521ZM8.76536 4.29343V5.22147L1.46887 6.1947V5.63039L8.76536 4.29343ZM1.46887 7.68191L2.55322 7.58766V8.15983L1.46887 8.20258V7.68191ZM1.54065 14.4164C1.49829 14.4045 1.46887 14.3641 1.46887 14.318V13.7684L2.40857 13.9972C2.53479 14.0278 2.66052 13.9448 2.6897 13.8119C2.71875 13.6788 2.64014 13.5461 2.51391 13.5154L1.46887 13.261V8.69737L2.69079 8.64922C2.87646 8.64188 3.02185 8.48261 3.02185 8.28665V7.44475C3.02185 7.23257 2.84949 7.06558 2.64966 7.08322L1.46887 7.18583V6.69297L8.76536 5.71987V6.55122L7.52793 6.65885C7.35093 6.67417 7.21226 6.83305 7.21226 7.02039V8.09456C7.21226 8.30005 7.37498 8.46523 7.56907 8.45699L8.76536 8.40987V8.74578C8.76536 8.88239 8.87034 8.99298 8.99973 8.99298C9.12912 8.99298 9.23411 8.88239 9.23411 8.74578V5.71987L16.5306 6.69297V7.18596L14.3845 6.99927C14.1833 6.98189 14.0123 7.14965 14.0123 7.3608V8.24867C14.0123 8.44463 14.1577 8.6039 14.3433 8.61124L16.5306 8.69737V13.2608L9.23411 15.0359V10.0643C9.23411 9.92772 9.12912 9.81712 8.99973 9.81712C8.87021 9.81712 8.76536 9.92772 8.76536 10.0643V15.0358L3.57958 13.7744C3.45336 13.7438 3.32763 13.8267 3.29846 13.9598C3.26941 14.0928 3.34802 14.2256 3.47424 14.2562L8.76536 15.5432V16.4317C8.52183 16.3637 1.9187 14.5218 1.54065 14.4164ZM16.5307 8.20258L14.4812 8.12185V7.50372L16.5307 7.68204V8.20258ZM9.23411 16.4317V15.5432L16.5307 13.7681V14.318C16.5307 14.3641 16.5012 14.4045 16.4589 14.4162C16.462 14.4164 16.5803 14.3825 9.23411 16.4317ZM16.5307 3.67002V5.12877L15.479 4.93616C15.3514 4.9126 15.2301 5.00285 15.208 5.1374C15.1859 5.27181 15.2713 5.39979 15.3988 5.42322L16.5307 5.63051V6.1947L9.23411 5.2216V4.29356C14.692 5.2937 14.3303 5.22945 14.3616 5.22945C14.4736 5.22945 14.5726 5.14474 14.5924 5.02448C14.6145 4.89007 14.5291 4.76209 14.4016 4.73865L9.23411 3.79182V1.55631L16.4589 3.57165C16.5012 3.58337 16.5307 3.62392 16.5307 3.67002ZM1.54065 3.57165L8.76536 1.55618V3.79169L1.46887 5.12851V3.67002C1.46887 3.62392 1.49829 3.58337 1.54065 3.57165Z" fill="#D0A659" stroke="#D0A659" stroke-width="0.2"/>
<path d="M10.422 14.1311L12.6714 13.681C12.8391 13.6474 12.9608 13.4924 12.9608 13.3124V7.22104C12.9608 7.0274 12.8174 6.86311 12.6343 6.84715L10.385 6.65144C10.1763 6.63355 10 6.80749 10 7.02534V13.7625C10 13.998 10.2031 14.1749 10.422 14.1311ZM10.4687 7.15473L12.4921 7.33074V13.2136L10.4687 13.6186V7.15473Z" fill="#D0A659" stroke="#CBCCD1" stroke-width="0.2"/>
<path d="M4.46228 8.57943L5.79614 8.5269C5.98181 8.51957 6.12731 8.3603 6.12731 8.16434V7.1745C6.12731 6.9627 5.95532 6.79546 5.75512 6.81297L4.42114 6.92897C4.24414 6.94442 4.10547 7.1033 4.10547 7.29051V8.21687C4.10547 8.42506 4.27075 8.58742 4.46228 8.57943ZM4.57422 7.41179L5.65857 7.31754V8.03752L4.57422 8.08027V7.41179Z" fill="#D0A659" stroke="#CBCCD1" stroke-width="0.2"/>
<path d="M3.79931 7.79115C3.79931 7.92762 3.69433 8.03835 3.56494 8.03835C3.43555 8.03835 3.33057 7.92762 3.33057 7.79115C3.33057 7.65467 3.43555 7.54395 3.56494 7.54395C3.69433 7.54395 3.79931 7.65467 3.79931 7.79115Z" fill="#D0A659" stroke="#D0A659" stroke-width="0.2"/>
<path d="M6.90381 7.59486C6.90381 7.73134 6.79895 7.84206 6.66943 7.84206C6.54004 7.84206 6.43506 7.73134 6.43506 7.59486C6.43506 7.45825 6.54004 7.34766 6.66943 7.34766C6.79895 7.34766 6.90381 7.45825 6.90381 7.59486Z" fill="#D0A659" stroke="#D0A659" stroke-width="0.2"/>
<path d="M13.7212 7.79115C13.7212 7.92762 13.6163 8.03835 13.4868 8.03835C13.3574 8.03835 13.2524 7.92762 13.2524 7.79115C13.2524 7.65467 13.3574 7.54395 13.4868 7.54395C13.6163 7.54395 13.7212 7.65467 13.7212 7.79115Z" fill="#D0A659" stroke="#D0A659" stroke-width="0.2"/>
</svg>
