<svg width="80" height="80" viewBox="0 0 80 80" fill="none" xmlns="http://www.w3.org/2000/svg">
<path fill-rule="evenodd" clip-rule="evenodd" d="M39.9994 5.00001C20.6694 5.00001 4.99935 20.67 4.99935 40C4.99935 59.33 20.6694 75 39.9994 75C59.3293 75 74.9994 59.33 74.9994 40C74.9994 37.8248 74.8011 35.6974 74.4222 33.6344C74.2559 32.7291 74.855 31.8604 75.7603 31.6941C76.6657 31.5278 77.5344 32.1269 77.7007 33.0322C78.1159 35.2929 78.3327 37.6219 78.3327 40C78.3327 61.1709 61.1703 78.3334 39.9994 78.3334C18.8284 78.3334 1.66602 61.1709 1.66602 40C1.66602 18.8291 18.8284 1.66667 39.9994 1.66667C47.7109 1.66667 54.8952 3.94552 60.9096 7.86699C61.6807 8.36973 61.8982 9.40234 61.3955 10.1734C60.8927 10.9445 59.8601 11.162 59.0891 10.6592C53.5997 7.08011 47.045 5.00001 39.9994 5.00001ZM71.1779 18.8215C71.8287 19.4724 71.8287 20.5276 71.1779 21.1785L41.1779 51.1785C40.527 51.8294 39.4717 51.8294 38.8208 51.1785L25.4875 37.8452C24.8366 37.1943 24.8366 36.139 25.4875 35.4882C26.1384 34.8373 27.1937 34.8373 27.8445 35.4882L39.9994 47.643L68.8208 18.8215C69.4717 18.1706 70.527 18.1706 71.1779 18.8215Z" fill="#16C612"/>
</svg>
