<svg width="17" height="18" viewBox="0 0 17 18" fill="none" xmlns="http://www.w3.org/2000/svg">
<path d="M8.5 1C5.6084 1 3.25 3.28693 3.25 6.09091C3.25 7.84375 4.17285 9.40057 5.57031 10.3182C2.89551 11.4318 1 14.0057 1 17H2.5C2.5 13.7784 5.17773 11.1818 8.5 11.1818C11.8223 11.1818 14.5 13.7784 14.5 17H16C16 14.0057 14.1045 11.4318 11.4297 10.3182C12.8271 9.40057 13.75 7.84375 13.75 6.09091C13.75 3.28693 11.3916 1 8.5 1ZM8.5 2.45455C10.5801 2.45455 12.25 4.07386 12.25 6.09091C12.25 8.10795 10.5801 9.72727 8.5 9.72727C6.41992 9.72727 4.75 8.10795 4.75 6.09091C4.75 4.07386 6.41992 2.45455 8.5 2.45455Z" fill="#D0A659" stroke="white" stroke-width="0.2"/>
</svg>
