<svg width="16" height="16" viewBox="0 0 16 16" fill="none" xmlns="http://www.w3.org/2000/svg">
<path fill-rule="evenodd" clip-rule="evenodd" d="M1.98837 1.12093C1.45588 1.12093 1.08005 1.54313 1.12511 1.99765C1.79899 8.79451 7.20549 14.201 14.0024 14.8749C14.4569 14.92 14.8791 14.5441 14.8791 14.0116V11.3524C14.8791 10.9504 14.6218 10.5934 14.2404 10.4663L11.6549 9.60442C11.3192 9.49254 10.9492 9.5799 10.699 9.83008L10.2851 10.2439C9.85141 10.6776 9.16213 10.7593 8.64119 10.4029C7.24597 9.44854 6.44063 8.64761 5.57733 7.34778C5.2317 6.8274 5.32113 6.14982 5.74713 5.72382L6.16992 5.30103C6.4201 5.05085 6.50746 4.68078 6.39558 4.34513L5.53375 1.75965C5.4066 1.37821 5.04964 1.12093 4.64758 1.12093H1.98837ZM0.00965204 2.10824C-0.10816 0.91996 0.869995 0 1.98837 0H4.64758C5.53213 0 6.31744 0.56602 6.59716 1.40518L7.45898 3.99066C7.70513 4.7291 7.51294 5.54324 6.96253 6.09365L6.53974 6.51644C6.47521 6.58097 6.47289 6.67013 6.51107 6.72762C7.2876 7.89679 7.98686 8.59725 9.27406 9.47775C9.33521 9.51958 9.42752 9.5163 9.4925 9.45132L9.90635 9.03747C10.4568 8.48706 11.2709 8.29487 12.0093 8.54102L14.5948 9.40284C15.434 9.68256 16 10.4679 16 11.3524V14.0116C16 15.13 15.08 16.1082 13.8918 15.9903C6.56328 15.2638 0.73623 9.43672 0.00965204 2.10824Z" fill="#D0A659"/>
</svg>
