<svg width="16" height="14" viewBox="0 0 16 14" fill="none" xmlns="http://www.w3.org/2000/svg">
<path fill-rule="evenodd" clip-rule="evenodd" d="M0 1.97436C0 0.883951 0.838275 0 1.87234 0H12.766C13.8 0 14.6383 0.883951 14.6383 1.97436V2.94611C15.4242 3.1805 16 3.94242 16 4.84615V12.0256C16 13.116 15.1617 14 14.1277 14H1.87234C0.838275 14 0 13.116 0 12.0256V1.97436ZM1.02128 3.73344V12.0256C1.02128 12.5213 1.40231 12.9231 1.87234 12.9231H14.1277C14.5977 12.9231 14.9787 12.5213 14.9787 12.0256V10.4103H12.766C11.7319 10.4103 10.8936 9.52631 10.8936 8.4359C10.8936 7.34549 11.7319 6.46154 12.766 6.46154H14.9787V4.84615C14.9787 4.35051 14.5977 3.94872 14.1277 3.94872H1.87234C1.56588 3.94872 1.27662 3.87108 1.02128 3.73344ZM14.9787 7.53846H12.766C12.2959 7.53846 11.9149 7.94026 11.9149 8.4359C11.9149 8.93154 12.2959 9.33333 12.766 9.33333H14.9787V7.53846ZM13.617 2.87179H1.87234C1.40231 2.87179 1.02128 2.47 1.02128 1.97436C1.02128 1.47872 1.40231 1.07692 1.87234 1.07692H12.766C13.236 1.07692 13.617 1.47872 13.617 1.97436V2.87179Z" fill="#D0A659"/>
</svg>
